<svg width="54" height="54" viewBox="0 0 54 54" fill="none" xmlns="http://www.w3.org/2000/svg">
<path d="M54 46.5C54 50.643 50.643 54 46.5 54H7.5C3.3585 54 0 50.643 0 46.5V7.5C0 3.357 3.3585 0 7.5 0H46.5C50.643 0 54 3.357 54 7.5V46.5Z" fill="#3E5056"/>
<path d="M12.15 37.5975V14.445C12.15 14.2875 12.2175 14.1975 12.375 14.1975C12.7575 14.1975 13.1175 14.1975 13.635 14.175C14.175 14.1525 14.7375 14.1525 15.345 14.13C15.9525 14.1075 16.605 14.1075 17.3025 14.085C18 14.0625 18.675 14.0625 19.35 14.0625C21.195 14.0625 22.725 14.2875 23.985 14.76C25.11 15.1425 26.145 15.7725 27 16.605C27.72 17.325 28.2825 18.2025 28.6425 19.17C28.98 20.115 29.16 21.0825 29.16 22.095C29.16 24.03 28.71 25.6275 27.81 26.8875C26.91 28.1475 25.65 29.0925 24.1875 29.6325C22.6575 30.195 20.97 30.3975 19.125 30.3975C18.585 30.3975 18.225 30.3975 18 30.375C17.775 30.3525 17.46 30.3525 17.0325 30.3525V37.575C17.055 37.7325 16.9425 37.8675 16.785 37.89C16.7625 37.89 16.74 37.89 16.695 37.89H12.42C12.24 37.89 12.15 37.8 12.15 37.5975ZM17.055 18.54V26.1C17.37 26.1225 17.6625 26.145 17.9325 26.145H19.125C20.0025 26.145 20.88 26.01 21.7125 25.74C22.4325 25.5375 23.0625 25.11 23.5575 24.5475C24.03 23.985 24.255 23.22 24.255 22.23C24.2775 21.5325 24.0975 20.835 23.7375 20.2275C23.355 19.6425 22.815 19.1925 22.1625 18.945C21.33 18.6075 20.43 18.4725 19.5075 18.495C18.9225 18.495 18.405 18.495 17.9775 18.5175C17.5275 18.495 17.2125 18.5175 17.055 18.54Z" fill="white"/>
<path d="M43.2 24.7276C42.525 24.3676 41.805 24.1201 41.04 23.9626C40.2075 23.7826 39.375 23.6701 38.52 23.6701C38.07 23.6476 37.5975 23.7151 37.17 23.8276C36.8775 23.8951 36.63 24.0526 36.4725 24.2776C36.36 24.4576 36.2925 24.6826 36.2925 24.8851C36.2925 25.0876 36.3825 25.2901 36.5175 25.4701C36.72 25.7176 36.99 25.9201 37.2825 26.0776C37.8 26.3476 38.34 26.5951 38.88 26.8201C40.095 27.2251 41.265 27.7876 42.345 28.4626C43.0875 28.9351 43.695 29.5651 44.1225 30.3301C44.4825 31.0501 44.6625 31.8376 44.64 32.6476C44.6625 33.7051 44.3475 34.7626 43.7625 35.6401C43.1325 36.5401 42.255 37.2376 41.2425 37.6426C40.14 38.1151 38.79 38.3626 37.17 38.3626C36.135 38.3626 35.1225 38.2726 34.11 38.0701C33.3225 37.9351 32.535 37.6876 31.815 37.3501C31.6575 37.2601 31.545 37.1026 31.5675 36.9226V33.0076C31.5675 32.9401 31.59 32.8501 31.6575 32.8051C31.725 32.7601 31.7925 32.7826 31.86 32.8276C32.7375 33.3451 33.66 33.7051 34.65 33.9301C35.505 34.1551 36.405 34.2676 37.305 34.2676C38.16 34.2676 38.7675 34.1551 39.1725 33.9526C39.5325 33.7951 39.78 33.4126 39.78 33.0076C39.78 32.6926 39.6 32.4001 39.24 32.1076C38.88 31.8151 38.1375 31.4776 37.035 31.0501C35.8875 30.6451 34.83 30.1051 33.84 29.4301C33.1425 28.9351 32.5575 28.2826 32.13 27.5176C31.77 26.7976 31.59 26.0101 31.6125 25.2226C31.6125 24.2551 31.8825 23.3326 32.3775 22.5001C32.94 21.6001 33.7725 20.8801 34.74 20.4301C35.7975 19.8901 37.125 19.6426 38.7225 19.6426C39.645 19.6426 40.59 19.7101 41.5125 19.8451C42.1875 19.9351 42.84 20.1151 43.4475 20.3626C43.5375 20.3851 43.6275 20.4751 43.6725 20.5651C43.695 20.6551 43.7175 20.7451 43.7175 20.8351V24.5026C43.7175 24.5926 43.6725 24.6826 43.605 24.7276C43.4025 24.7726 43.29 24.7726 43.2 24.7276Z" fill="white"/>
</svg>
