<svg width="54" height="54" viewBox="0 0 54 54" fill="none" xmlns="http://www.w3.org/2000/svg">
<rect x="10.8" y="7.19995" width="33.6" height="37.8" fill="white"/>
<path d="M4 0C1.79086 0 0 1.79086 0 4V50C0 52.2091 1.79086 54 4 54H50C52.2091 54 54 52.2091 54 50V4C54 1.79086 52.2091 0 50 0H4ZM26.4438 39.6L25.0722 34.362H18.0234L16.6536 39.6H11.187L19.1844 14.0058H23.913L31.9644 39.6H26.4438ZM39.33 39.6H34.3386V20.5812H39.33V39.6ZM38.7936 17.5572C38.3058 18.0612 37.6488 18.3132 36.8154 18.3132C35.982 18.3132 35.325 18.0612 34.8372 17.5572C34.3494 17.0532 34.1082 16.4196 34.1082 15.6582C34.1082 14.8842 34.3548 14.2524 34.8462 13.7592C35.3376 13.266 35.9964 13.0212 36.8154 13.0212C37.6344 13.0212 38.2914 13.2678 38.7846 13.7592C39.2778 14.2506 39.5226 14.8842 39.5226 15.6582C39.5226 16.4196 39.2796 17.0532 38.7936 17.5572Z" fill="#3E5056"/>
<path d="M19.1502 30.0545H23.931L21.5406 20.9321L19.1502 30.0545Z" fill="#3E5056"/>
</svg>
