<svg width="54" height="54" viewBox="0 0 54 54" fill="none" xmlns="http://www.w3.org/2000/svg">
<rect width="54" height="54" rx="4" fill="#3E5056"/>
<path fill-rule="evenodd" clip-rule="evenodd" d="M33.7902 7.82288C34.1384 8.25703 34.3159 8.84304 34.6709 10.0145L42.4286 35.6121C39.5146 34.0933 36.3871 33.0297 33.154 32.458L28.1031 15.3132C28.0628 15.1764 27.9796 15.0564 27.8658 14.9711C27.7519 14.8858 27.6137 14.8398 27.4717 14.84C27.3297 14.8403 27.1916 14.8866 27.078 14.9723C26.9645 15.0579 26.8815 15.1781 26.8417 15.315L21.8519 32.4494C18.6041 33.0184 15.4623 34.0837 12.5357 35.6083L20.3311 10.0088C20.6876 8.8389 20.8654 8.25415 21.2137 7.8209C21.521 7.43823 21.9209 7.14103 22.3751 6.95763C22.8895 6.75 23.4984 6.75 24.7162 6.75H30.2842C31.5035 6.75 32.1133 6.75 32.6282 6.95817C33.0828 7.14193 33.4828 7.43964 33.7902 7.82288Z" fill="white"/>
<path fill-rule="evenodd" clip-rule="evenodd" d="M34.9398 37.4334C33.6061 38.5207 30.9437 39.2621 27.8773 39.2621C24.1135 39.2621 20.9589 38.1451 20.122 36.6428C19.8227 37.5039 19.7556 38.4892 19.7556 39.1187C19.7556 39.1187 19.5583 42.2096 21.8134 44.3594C21.8134 43.2431 22.7626 42.3382 23.9336 42.3382C25.9406 42.3382 25.9383 44.0075 25.9365 45.3618V45.4827C25.9365 47.5383 27.2543 49.3004 29.1284 50.0431C28.84 49.477 28.6906 48.8558 28.6915 48.2265C28.6915 46.266 29.8989 45.536 31.302 44.6877C32.4185 44.0127 33.6589 43.2627 34.5138 41.7581C34.9742 40.9477 35.2145 40.0404 35.2131 39.1187C35.2131 38.5312 35.1172 37.9648 34.9398 37.4334Z" fill="white"/>
</svg>
