<svg width="54" height="54" viewBox="0 0 54 54" fill="none" xmlns="http://www.w3.org/2000/svg">
<rect width="54" height="54" rx="4" fill="#3E5056"/>
<path d="M26.7971 25C24.5896 25 22.8 26.8025 22.8 29.0263C22.8 31.2511 24.5896 33.0525 26.7971 33.0525C29.0046 33.0525 30.7934 31.2511 30.7934 29.0263C30.7934 26.8025 29.0045 25 26.7971 25Z" fill="white"/>
<path d="M41.5535 19.6051C40.9788 19.0241 40.1691 18.6584 39.2849 18.6584H35.8158C35.5362 18.6595 35.2755 18.4924 35.1555 18.2227L34.1162 15.8996C33.6022 14.7487 32.4595 14 31.1913 14H22.2986C21.031 14 19.8878 14.7487 19.3726 15.8996L18.3344 18.2227C18.2143 18.4924 17.9531 18.6595 17.6741 18.6584H14.2051C13.3214 18.6584 12.51 19.024 11.9342 19.6051C11.3584 20.1845 11 20.9942 11 21.8761V36.7834C11 37.6658 11.3584 38.475 11.9342 39.0543C12.51 39.6354 13.3214 40.0011 14.2051 40H28.0158H39.2849C40.1692 40.0011 40.9789 39.6354 41.5535 39.0543C42.1321 38.475 42.49 37.6658 42.49 36.7834V21.8761C42.4899 20.9942 42.132 20.1834 41.5535 19.6051ZM31.8783 34.0219C30.5695 35.3432 28.7482 36.1647 26.7453 36.1647C24.7412 36.1647 22.9205 35.3433 21.6117 34.0219C20.3007 32.7039 19.4881 30.8736 19.4892 28.8636C19.4881 26.8535 20.3007 25.0249 21.6117 23.7047C22.9205 22.3844 24.7406 21.5619 26.7453 21.5636C28.7482 21.5619 30.5695 22.3844 31.8783 23.7047C33.1893 25.0249 34.0019 26.8535 34.0001 28.8636C34.0018 30.8736 33.1893 32.7039 31.8783 34.0219ZM39.4127 24.4539H37.2113V22.2551H39.4127V24.4539Z" fill="white"/>
</svg>
