<svg width="48" height="52" viewBox="0 0 48 52" fill="none" xmlns="http://www.w3.org/2000/svg">
<path d="M3 2H44L41.2045 44.63L24.4318 51L5.32955 44.63L3 2Z" fill="white"/>
<path fill-rule="evenodd" clip-rule="evenodd" d="M44.8866 0C46.0627 0 46.985 1.01 46.8784 2.18131L43.0422 44.3229C42.9699 45.1173 42.4325 45.7928 41.6747 46.0417L24.7869 51.5898C23.9759 51.8563 23.101 51.8563 22.29 51.5898L5.40225 46.0417C4.64444 45.7928 4.10703 45.1173 4.03472 44.3229L0.198565 2.18131C0.0919399 1.00999 1.01417 0 2.19033 0H44.8866ZM12.2453 30.5826C12.2129 30.0091 12.6693 29.5263 13.2437 29.5263H16.7636C17.3003 29.5263 17.7412 29.9499 17.7628 30.486L17.8315 32.1897C17.8483 32.6059 18.1213 32.9682 18.5169 33.0989L23.2247 34.6547C23.4284 34.7221 23.6485 34.7221 23.8523 34.6547L28.5793 33.0925C28.9653 32.965 29.2356 32.6165 29.2632 32.2109L29.5559 27.91C29.5952 27.3323 29.1372 26.8421 28.5582 26.8421H18.3973C17.8653 26.8421 17.4265 26.4256 17.3987 25.8944L17.2222 22.526C17.1922 21.9539 17.648 21.4737 18.2208 21.4737H28.9835C29.5062 21.4737 29.9407 21.0712 29.9806 20.55L30.3209 16.1053H12.143C11.6207 16.1053 11.1864 15.7033 11.146 15.1826L10.8847 11.8142C10.8396 11.2332 11.2989 10.7368 11.8817 10.7368H35.0741C35.6517 10.7368 36.1092 11.2248 36.072 11.8012L35.4483 21.4737L34.5178 36.226C34.4918 36.6372 34.2164 36.9904 33.8239 37.1157L23.8426 40.3024C23.6448 40.3655 23.4322 40.3655 23.2343 40.3024L13.2577 37.1172C12.8629 36.9911 12.5867 36.6346 12.5634 36.2209L12.2453 30.5826Z" fill="#3E5056"/>
</svg>
