<svg width="54" height="54" viewBox="0 0 54 54" fill="none" xmlns="http://www.w3.org/2000/svg">
<rect width="54" height="54" rx="4" fill="#3E5056"/>
<path fill-rule="evenodd" clip-rule="evenodd" d="M18.2579 22.0489C16.2966 20.7827 15 18.5903 15 16.0978C15 12.1778 18.2072 9 22.1634 9H34.4366C38.3928 9 41.6 12.1778 41.6 16.0978C41.6 18.5903 40.3035 20.7827 38.3421 22.0489C40.3035 23.3152 41.6 25.5076 41.6 28.0001C41.6 31.9201 38.3928 35.0979 34.4366 35.0979H34.306C32.4359 35.0979 30.7331 34.3878 29.4574 33.2249V39.8374C29.4574 43.8013 26.18 47 22.1959 47C18.2478 47 15 43.8302 15 39.9022C15 37.4098 16.2965 35.2174 18.2577 33.9511C16.2965 32.6848 15 30.4925 15 28.0001C15 25.5076 16.2966 23.3152 18.2579 22.0489ZM29.4574 28.0001C29.4574 30.6534 31.6282 32.8043 34.306 32.8043H34.4366C37.1145 32.8043 39.2853 30.6534 39.2853 28.0001C39.2853 25.3467 37.1145 23.1958 34.4366 23.1958H34.306C31.6282 23.1958 29.4574 25.3467 29.4574 28.0001ZM27.1426 23.1958H22.1634C19.4855 23.1958 17.3147 25.3467 17.3147 28.0001C17.3147 30.648 19.4768 32.7956 22.1471 32.8043H22.1547H27.1426V23.1958ZM22.1634 35.0979C22.158 35.0979 22.1525 35.0979 22.1471 35.0979C19.4768 35.1066 17.3147 37.2542 17.3147 39.9022C17.3147 42.5475 19.5099 44.7064 22.1959 44.7064C24.9179 44.7064 27.1426 42.5185 27.1426 39.8374V35.0979H22.1634ZM27.1426 20.9021H22.1634C19.4855 20.9021 17.3147 18.7512 17.3147 16.0978C17.3147 13.4445 19.4855 11.2936 22.1634 11.2936H27.1426V20.9021ZM34.4366 20.9021H29.4574V11.2936H34.4366C37.1145 11.2936 39.2853 13.4445 39.2853 16.0978C39.2853 18.7512 37.1145 20.9021 34.4366 20.9021Z" fill="white"/>
</svg>
