<svg width="48" height="52" viewBox="0 0 48 52" fill="none" xmlns="http://www.w3.org/2000/svg">
<path d="M2 1H46L43 44.5L25 51L4.5 44.5L2 1Z" fill="white"/>
<path d="M0.956894 0C0.354315 0.105956 -0.061099 0.648979 0.00737611 1.23615L4.13413 45.8082C4.18891 46.2629 4.52215 46.6382 4.97409 46.7618L23.6723 51.9536C23.8868 52.0155 24.1151 52.0155 24.3296 51.9536L43.0278 46.7618C43.4798 46.6382 43.813 46.2629 43.8678 45.8082L47.9945 1.23615C48.0265 0.918283 47.9169 0.604831 47.6933 0.366431C47.4696 0.132445 47.1546 0 46.8259 0H1.17601C1.13949 0 1.10297 0 1.06645 0C1.02993 0 0.993414 0 0.956894 0ZM2.45421 2.26039H45.5477L41.6401 44.8193L24.001 49.6579L6.36184 44.8193L2.45421 2.26039ZM9.42951 9.1122C8.82694 9.21815 8.41152 9.76118 8.48 10.3483L10.0504 27.054C10.0869 27.6368 10.5799 28.0959 11.1825 28.1136H29.8442L29.3329 33.3054L24.0375 34.4003L18.6691 33.3054L18.4865 31.4689C18.4499 30.8729 17.9341 30.4093 17.3178 30.4093H11.6207C11.292 30.4093 10.977 30.5417 10.7534 30.7757C10.5297 31.0141 10.4201 31.3276 10.4521 31.6455L11.1094 38.5679C11.146 39.0226 11.4609 39.4155 11.9129 39.5568L23.5262 42.9827L23.6723 43.018C23.8868 43.0798 24.1151 43.0798 24.3296 43.018L36.0891 39.5568C36.5547 39.4288 36.8879 39.0359 36.929 38.5679L38.4629 21.5797C38.4948 21.2662 38.3898 20.9572 38.1753 20.7232C37.9607 20.4892 37.6549 20.3523 37.3307 20.3435H17.4274L17.1352 16.847H37.842C38.4492 16.8514 38.9559 16.4055 39.0107 15.8227L39.5219 10.3483C39.5539 10.0305 39.4443 9.71703 39.2206 9.47863C38.997 9.24464 38.682 9.1122 38.3533 9.1122H9.64863C9.57559 9.10337 9.50255 9.10337 9.42951 9.1122ZM10.9268 11.3726H37.0751L36.7829 14.5866H15.857C15.5283 14.5866 15.2134 14.719 14.9897 14.953C14.766 15.1914 14.6564 15.5049 14.6884 15.8227L15.2362 21.5797C15.291 22.1492 15.7794 22.5907 16.3683 22.6039H36.0525L34.6648 37.6143L24.001 40.7223L13.3371 37.6143L12.8989 32.6697H16.2587L16.4048 34.3297C16.4413 34.8285 16.8111 35.2435 17.3178 35.3539L23.8184 36.6607C23.9736 36.6916 24.1379 36.6916 24.2931 36.6607L30.6841 35.3539C31.1908 35.2435 31.5606 34.8285 31.5971 34.3297L32.291 27.054C32.3092 26.7406 32.1951 26.436 31.976 26.2108C31.7523 25.9812 31.4465 25.8532 31.1223 25.8532H12.2415L10.9268 11.3726Z" fill="#3E5056"/>
</svg>
