<svg width="51" height="51" viewBox="0 0 51 51" fill="none" xmlns="http://www.w3.org/2000/svg">
<rect x="2.26621" y="2.26685" width="45.7876" height="45.7876" fill="white"/>
<path d="M3.33616 0.159912C1.59695 0.159912 0.160004 1.59685 0.160004 3.33607V46.9838C0.160004 48.723 1.59695 50.1599 3.33616 50.1599H46.9838C48.7231 50.1599 50.16 48.7276 50.16 46.9838V3.33607C50.16 1.59685 48.7277 0.159912 46.9838 0.159912H3.33616ZM3.33616 2.54086H46.9838C47.4256 2.54086 47.7791 2.89429 47.7791 3.33607V46.9838C47.7791 47.4255 47.4256 47.779 46.9838 47.779H3.33616C2.89438 47.779 2.54096 47.4255 2.54096 46.9838V3.33607C2.54096 2.89429 2.89438 2.54086 3.33616 2.54086ZM22.7791 22.779V37.7483C22.7791 40.0455 21.9094 40.6361 20.3981 40.6361C18.817 40.6361 17.7195 39.6502 16.9941 38.3714L13.2552 40.6361C14.3388 42.9287 16.9941 45.398 20.6771 45.398C24.7508 45.398 27.541 43.231 27.541 38.4737V22.779H22.7791ZM37.6042 22.779C33.5491 22.779 30.9496 25.3738 30.9496 28.7825C30.9496 32.4795 33.1306 34.228 36.4091 35.6231L37.5437 36.1114C39.6131 37.0182 40.6362 37.5716 40.6362 39.1294C40.6362 40.4268 39.6503 41.3662 37.767 41.3662C35.5255 41.3662 34.4652 39.8456 33.4933 38.2551L29.9219 40.6361C31.2565 43.2728 33.6514 45.398 37.8693 45.398C42.1847 45.398 45.3981 43.1566 45.3981 39.069C45.3981 35.2743 43.2218 33.5863 39.3574 31.9307L38.2227 31.4471C36.2742 30.6008 35.4279 30.052 35.4279 28.6895C35.4279 27.5874 36.2742 26.741 37.6042 26.741C38.9109 26.741 39.748 27.2944 40.5246 28.6895L44.0635 26.4201C42.5707 23.7834 40.492 22.779 37.6042 22.779Z" fill="#3E5056"/>
</svg>
