<svg width="57" height="57" viewBox="0 0 57 57" fill="none" xmlns="http://www.w3.org/2000/svg">
<path d="M21.3379 39.1875C21.3379 40.3674 20.3818 41.325 19.2005 41.325C18.0191 41.325 17.063 40.3674 17.063 39.1875V19.2375C17.063 18.307 17.6657 17.4833 18.5521 17.1997C19.4427 16.9176 20.4074 17.2425 20.9446 18.002L44.8519 51.7802C52.1792 46.6103 57 38.0974 57 28.5C57 12.825 44.175 0 28.5 0C12.825 0 0 12.825 0 28.5C0 44.175 12.825 57 28.5 57C33.0486 57 37.3435 55.8928 41.1682 53.9761L21.3379 25.9578V39.1875ZM35.588 17.8125C35.588 16.6326 36.5441 15.675 37.7254 15.675C38.9068 15.675 39.8629 16.6326 39.8629 17.8125V37.5345L35.588 31.511V17.8125Z" fill="#3E5056"/>
</svg>
