<svg width="59" height="53" viewBox="0 0 59 53" fill="none" xmlns="http://www.w3.org/2000/svg">
<path d="M18.9751 0C17.5124 0 16.1558 0.335051 14.9541 1.04297C11.1985 3.26174 9.76892 8.66869 10.5264 15.4005C4.4515 18.0952 0.590912 22.0631 0.590912 26.5C0.590912 30.9369 4.4515 34.9048 10.5264 37.5995C9.76931 44.331 11.1985 49.7383 14.9541 51.957C16.1535 52.6649 17.51 53 18.9751 53C22.0934 53 25.6974 51.3986 29.3173 48.6511C32.9375 51.3986 36.546 53 39.6643 53C41.1269 53 42.4835 52.6649 43.6852 51.957C47.4409 49.7383 48.8704 44.3313 48.1129 37.5995C54.1856 34.9048 58.0438 30.936 58.0438 26.5C58.0438 22.0631 54.1832 18.0952 48.1083 15.4005C48.8654 8.66895 47.4362 3.26174 43.6805 1.04297C42.4812 0.332602 41.1246 0 39.6596 0C36.5413 0 32.9372 1.60144 29.3173 4.34889C25.6972 1.60144 22.0923 0 18.9751 0ZM18.9751 4.28669C20.8462 4.28669 23.3206 5.30474 26.0071 7.19074C24.4275 8.71603 22.8806 10.4504 21.3923 12.3817C18.9784 12.7358 16.7025 13.2521 14.5941 13.8983C14.5828 13.7487 14.556 13.5917 14.5474 13.4438C14.2912 9.08358 15.227 5.83335 17.0488 4.75555C17.5874 4.43711 18.2162 4.28669 18.9751 4.28669ZM39.6596 4.28669C40.4161 4.28669 41.0473 4.43711 41.5859 4.75555C43.4076 5.8309 44.3435 9.08358 44.0873 13.4438C44.0786 13.5917 44.0519 13.7487 44.0406 13.8983C41.9309 13.2517 39.6533 12.7359 37.2377 12.3817C35.7494 10.4507 34.2071 8.71585 32.6276 7.19074C35.3139 5.30506 37.7894 4.28669 39.6596 4.28669ZM29.3173 9.91298C29.9663 10.5174 30.6107 11.1562 31.2624 11.8554C30.6165 11.8332 29.9741 11.8028 29.3173 11.8028C28.6621 11.8028 28.0213 11.8333 27.377 11.8554C28.0281 11.1569 28.669 10.5168 29.3173 9.91298ZM29.3173 16.0895C31.3011 16.0895 33.1813 16.2029 34.9654 16.4004C36.0533 17.9136 37.1256 19.5135 38.1307 21.2947C39.0941 23.0021 39.946 24.7498 40.6976 26.5C39.9459 28.2513 39.0946 30.0016 38.1307 31.7101C37.1287 33.4862 36.0591 35.0757 34.9747 36.5852C33.1277 36.792 31.233 36.9105 29.3173 36.9105C27.3336 36.9105 25.4533 36.7971 23.6693 36.5996C22.5813 35.0864 21.5091 33.4913 20.504 31.7101C19.54 30.0016 18.689 28.2513 17.9371 26.5C18.6885 24.7498 19.5406 23.0021 20.504 21.2947C21.5063 19.5186 22.5753 17.9243 23.6599 16.4148C25.507 16.208 27.4017 16.0895 29.3173 16.0895ZM40.6789 17.4147C41.6286 17.6493 42.5417 17.9026 43.4 18.185C43.2056 19.0841 42.9677 20.0004 42.6987 20.9263C42.3906 20.3349 42.0919 19.7415 41.7589 19.1514C41.4163 18.5444 41.0359 17.999 40.6789 17.4147ZM17.9511 17.4195C17.5953 18.002 17.2173 18.5463 16.8758 19.1514C16.5429 19.7416 16.2439 20.3348 15.936 20.9263C15.6663 19.9985 15.4246 19.0811 15.23 18.1802C16.1041 17.8976 17.0148 17.6473 17.9511 17.4195ZM11.2885 19.7542C11.7929 21.9334 12.4926 24.1923 13.3925 26.4952C12.4945 28.7926 11.7977 31.0475 11.2932 33.2219C7.12434 31.162 4.78018 28.5977 4.78018 26.5C4.78018 24.3469 7.05885 21.8931 10.8771 19.9408C11.0074 19.8741 11.1553 19.8193 11.2885 19.7542ZM47.3415 19.7781C51.5103 21.838 53.8545 24.4023 53.8545 26.5C53.8545 28.6531 51.5758 31.1069 47.7576 33.0592C47.6273 33.1259 47.4793 33.1806 47.3462 33.2458C46.8415 31.0654 46.1475 28.8043 45.2468 26.5C46.1438 24.2046 46.8373 21.9507 47.3415 19.7781ZM29.3173 21.6009C26.6721 21.6009 24.5296 23.7933 24.5296 26.5C24.5296 29.2067 26.6721 31.3991 29.3173 31.3991C31.9626 31.3991 34.1051 29.2067 34.1051 26.5C34.1051 23.7933 31.9626 21.6009 29.3173 21.6009ZM15.936 32.0737C16.2441 32.6654 16.5473 33.2583 16.8804 33.8486C17.2227 34.4552 17.5991 35.0014 17.9558 35.5853C17.006 35.3507 16.093 35.0974 15.2347 34.815C15.4293 33.9154 15.6667 33.0002 15.936 32.0737ZM42.6987 32.0784C42.968 33.0054 43.2102 33.9198 43.4047 34.8198C42.5306 35.1024 41.6198 35.3527 40.6835 35.5805C41.0394 34.998 41.4174 34.4537 41.7589 33.8486C42.0911 33.2596 42.3913 32.6688 42.6987 32.0784ZM14.5941 39.1017C16.7038 39.7483 18.9814 40.2641 21.397 40.6183C22.8857 42.5502 24.4269 44.2884 26.0071 45.814C23.3208 47.6995 20.8461 48.7181 18.9751 48.7181C18.2186 48.7181 17.5874 48.5629 17.0488 48.2444C15.227 47.1691 14.2912 43.9212 14.5474 39.561C14.5561 39.4116 14.5826 39.2529 14.5941 39.1017ZM44.0406 39.1017C44.052 39.2529 44.0786 39.4116 44.0873 39.561C44.3435 43.9212 43.4076 47.1667 41.5859 48.2444C41.0473 48.5629 40.4184 48.7181 39.6596 48.7181C37.7886 48.7181 35.3139 47.6998 32.6276 45.814C34.2079 44.2882 35.7533 42.5505 37.2423 40.6183C39.6563 40.2642 41.9322 39.7479 44.0406 39.1017ZM27.3723 41.1446C28.0181 41.1668 28.6605 41.1972 29.3173 41.1972C29.9741 41.1972 30.6165 41.1668 31.2624 41.1446C30.6107 41.8438 29.9663 42.4827 29.3173 43.087C28.6684 42.4826 28.024 41.8438 27.3723 41.1446Z" fill="#3E5056"/>
</svg>
