<svg width="50" height="50" viewBox="0 0 50 50" fill="none" xmlns="http://www.w3.org/2000/svg">
<rect x="2" y="2" width="45.7876" height="45.7876" fill="white"/>
<path d="M0 5.55556V44.4444C0 47.5139 2.48611 50 5.55556 50H44.4444C47.5139 50 50 47.5139 50 44.4444V5.55556C50 2.48611 47.5139 0 44.4444 0H5.55556C2.48611 0 0 2.48611 0 5.55556ZM29.6278 26.2528H23.7444V44.4444H19.0028V26.2528H13.2417V22.2222H29.6278V26.2528ZM30.55 43.4056V38.5417C30.55 38.5417 33.2056 40.5444 36.3944 40.5444C39.5833 40.5444 39.4583 38.4611 39.4583 38.175C39.4583 35.15 30.4278 35.15 30.4278 28.45C30.4278 19.3361 43.5861 22.9333 43.5861 22.9333L43.4222 27.2639C43.4222 27.2639 41.2167 25.7917 38.7222 25.7917C36.2306 25.7917 35.3306 26.9778 35.3306 28.2444C35.3306 31.5139 44.4444 31.1861 44.4444 37.7667C44.4444 47.9 30.55 43.4056 30.55 43.4056Z" fill="#3E5056"/>
</svg>
