<svg width="53" height="53" viewBox="0 0 53 53" fill="none" xmlns="http://www.w3.org/2000/svg">
<circle cx="26.4" cy="26.7998" r="26" fill="white"/>
<path d="M26.4071 0C11.8238 0 0 11.8238 0 26.4071C0 38.781 8.5207 49.1348 20.0078 52C19.8846 51.6435 19.8053 51.2298 19.8053 50.7171V46.2036C18.7336 46.2036 16.938 46.2036 16.4868 46.2036C14.6802 46.2036 13.0737 45.4268 12.2947 43.9832C11.4299 42.379 11.2802 39.9254 9.13686 38.4245C8.50089 37.925 8.98502 37.3551 9.71782 37.4321C11.0712 37.815 12.1935 38.7436 13.2498 40.1212C14.3017 41.501 14.7968 41.8135 16.7619 41.8135C17.7148 41.8135 19.1408 41.7584 20.4831 41.5472C21.2049 39.7141 22.4526 38.0262 23.9777 37.2296C15.1841 36.3252 10.9876 31.9504 10.9876 26.011C10.9876 23.4539 12.0769 20.9804 13.9276 18.8965C13.3202 16.8279 12.5566 12.6094 14.1608 11.003C18.1175 11.003 20.5095 13.5689 21.0839 14.262C23.0556 13.5865 25.221 13.2036 27.4964 13.2036C29.7762 13.2036 31.9504 13.5865 33.9265 14.2664C34.4943 13.5777 36.8885 11.003 40.854 11.003C42.4648 12.6116 41.6924 16.8477 41.0785 18.9119C42.9182 20.9915 44.0009 23.4583 44.0009 26.011C44.0009 31.946 39.8109 36.3186 31.0306 37.2274C33.4468 38.4884 35.2095 42.0313 35.2095 44.7006V50.7171C35.2095 50.9459 35.1589 51.111 35.1325 51.3068C45.4224 47.7 52.8142 37.9294 52.8142 26.4071C52.8142 11.8238 40.9904 0 26.4071 0Z" fill="#3E5056"/>
</svg>
