<svg width="48" height="48" viewBox="0 0 48 48" fill="none" xmlns="http://www.w3.org/2000/svg">
<rect x="2.5" y="2.5" width="43" height="43" rx="13.5" fill="white" stroke="#3E5056"/>
<path d="M14.64 0.870117C7.04771 0.870117 0.869995 7.04783 0.869995 14.6401V33.3601C0.869995 40.9524 7.04771 47.1301 14.64 47.1301H33.36C40.9523 47.1301 47.13 40.9524 47.13 33.3601V14.6401C47.13 7.04783 40.9523 0.870117 33.36 0.870117H14.64ZM14.64 3.45012H33.36C39.5519 3.45012 44.55 8.44824 44.55 14.6401V33.3601C44.55 39.552 39.5519 44.5501 33.36 44.5501H14.64C8.44812 44.5501 3.45 39.552 3.45 33.3601V14.6401C3.45 8.44824 8.44812 3.45012 14.64 3.45012ZM36.48 9.19012C35.862 9.19012 35.2694 9.4356 34.8324 9.87256C34.3955 10.3095 34.15 10.9022 34.15 11.5201C34.15 12.1381 34.3955 12.7307 34.8324 13.1677C35.2694 13.6046 35.862 13.8501 36.48 13.8501C37.0979 13.8501 37.6906 13.6046 38.1276 13.1677C38.5645 12.7307 38.81 12.1381 38.81 11.5201C38.81 10.9022 38.5645 10.3095 38.1276 9.87256C37.6906 9.4356 37.0979 9.19012 36.48 9.19012ZM24 12.3101C17.5561 12.3101 12.31 17.5562 12.31 24.0001C12.31 30.444 17.5561 35.6901 24 35.6901C30.4439 35.6901 35.69 30.444 35.69 24.0001C35.69 17.5562 30.4439 12.3101 24 12.3101ZM24 14.8901C29.0436 14.8901 33.11 18.9565 33.11 24.0001C33.11 29.0437 29.0436 33.1101 24 33.1101C18.9564 33.1101 14.89 29.0437 14.89 24.0001C14.89 18.9565 18.9564 14.8901 24 14.8901Z" fill="#4B5B5E" stroke="#3E5056" stroke-width="0.5"/>
</svg>
