<svg width="44" height="44" viewBox="0 0 44 44" fill="none" xmlns="http://www.w3.org/2000/svg">
<rect x="1" y="1" width="42" height="42" rx="14" fill="white"/>
<path d="M38.64 0.160156H5.36C2.4896 0.160156 0.160004 2.48976 0.160004 5.36016V38.6402C0.160004 41.5106 2.4896 43.8402 5.36 43.8402H38.64C41.5104 43.8402 43.84 41.5106 43.84 38.6402V5.36016C43.84 2.48976 41.5104 0.160156 38.64 0.160156ZM13.68 16.8002V36.5602H7.44V16.8002H13.68ZM7.44 11.049C7.44 9.59296 8.688 8.48016 10.56 8.48016C12.432 8.48016 13.6072 9.59296 13.68 11.049C13.68 12.505 12.5152 13.6802 10.56 13.6802C8.688 13.6802 7.44 12.505 7.44 11.049ZM36.56 36.5602H30.32C30.32 36.5602 30.32 26.9298 30.32 26.1602C30.32 24.0802 29.28 22.0002 26.68 21.9586H26.5968C24.08 21.9586 23.04 24.101 23.04 26.1602C23.04 27.1066 23.04 36.5602 23.04 36.5602H16.8V16.8002H23.04V19.4626C23.04 19.4626 25.0472 16.8002 29.0824 16.8002C33.2112 16.8002 36.56 19.6394 36.56 25.3906V36.5602Z" fill="#3E5056"/>
</svg>
