<svg width="54" height="54" viewBox="0 0 54 54" fill="none" xmlns="http://www.w3.org/2000/svg">
<path d="M42.4114 0.109375H11.501C5.20967 0.109375 0.109528 5.20951 0.109528 11.5009V42.4112C0.109528 48.7025 5.20967 53.8027 11.501 53.8027H42.4114C48.7027 53.8027 53.8028 48.7025 53.8028 42.4112V11.5009C53.8028 5.20951 48.7027 0.109375 42.4114 0.109375Z" fill="white"/>
<path d="M15.2471 15.5209C19.7598 15.5209 25.9375 15.2909 30.3736 15.4114C36.3213 15.5647 38.5667 18.1607 38.6434 24.5574C38.7201 28.183 38.6434 38.5448 38.6434 38.5448H32.2029C32.2029 29.4755 32.2357 27.9749 32.2029 25.116C32.1262 22.5968 31.4142 21.4029 29.4755 21.1728C27.4272 20.9428 21.6876 21.14 21.6876 21.14V38.5558H15.2471V15.5209Z" fill="#3E5056"/>
</svg>
