<svg width="54" height="54" viewBox="0 0 54 54" fill="none" xmlns="http://www.w3.org/2000/svg">
<g clip-path="url(#clip0_534_65)">
<mask id="mask0_534_65" style="mask-type:luminance" maskUnits="userSpaceOnUse" x="0" y="0" width="54" height="54">
<path d="M0 -2.14577e-06H54V54H0V-2.14577e-06Z" fill="white"/>
</mask>
<g mask="url(#mask0_534_65)">
<path d="M40.0984 40.9246C37.1858 44.0311 33.2285 45.0529 28.4382 45.5375C18.7385 46.5183 10.3358 42.1866 9.31806 31.3636C8.88552 26.7624 9.90954 22.3884 11.9741 18.8041L10.7721 14.0769C10.5781 13.2552 11.3342 12.4736 12.1351 12.668L16.2875 13.676C18.7567 11.6485 21.7436 10.3235 25.0384 9.99036C27.8566 9.70542 30.589 10.1781 33.0732 11.2559L36.9763 8.8947C37.7109 8.45046 38.641 8.95266 38.7112 9.8316L38.9362 15.3999V15.4001C41.9378 18.569 43.9817 22.8969 44.4438 27.8114C44.7048 30.5874 44.4168 32.7109 43.681 34.7368C43.3364 35.685 43.2328 36.4869 43.8556 37.2805C44.4571 38.0473 45.4113 39.5361 46.4753 39.2866C48.0744 38.9117 49.7869 39.0116 50.8453 39.6725C52.8579 35.8934 54 31.5805 54 27C54 12.0884 41.9117 -2.14577e-06 27 -2.14577e-06C12.0883 -2.14577e-06 0 12.0884 0 27C0 41.9117 12.0883 54 27 54C34.6464 54 41.5496 50.8207 46.4621 45.7128C45.6005 45.5836 44.7192 45.2489 43.882 44.6909C42.2744 43.6192 40.8478 42.6067 40.0984 40.9246Z" fill="#3E5056"/>
<path d="M37.6058 21.1291L40.1274 20.82L40.0918 20.3657L37.5046 20.6827C37.3936 20.356 37.2683 20.0365 37.1299 19.7243L39.9796 18.815L39.8902 18.2446L36.8592 19.2943C34.8261 15.0319 30.4303 12.4441 25.4535 12.9473C20.4846 13.4497 16.5501 17.0276 15.3429 21.6062L12.3783 21.1573L12.3466 21.7398L15.2656 22.0562C15.1864 22.393 15.1211 22.5926 15.0721 22.9388L12.5253 23.142L12.5485 23.5976L15.0307 23.3994C14.987 23.7848 14.9609 24.0326 14.956 24.4267L12.6884 25.3538L12.7996 25.916L14.9591 24.9055C14.9641 25.2066 14.9771 25.3672 15.0057 25.6719C15.6058 32.0554 20.9378 33.3176 27.3082 32.6734C33.6784 32.0291 38.6746 29.7226 38.0745 23.3391C38.0455 23.0327 38.0016 22.8736 37.9501 22.5757L40.2892 23.0837L40.3438 22.5685L37.8902 22.1027C37.8132 21.7231 37.7181 21.4928 37.6058 21.1291Z" fill="#3E5056"/>
<path d="M40.2893 23.0837L37.95 22.5755C38.0017 22.8736 38.0456 23.0327 38.0744 23.3391C38.6745 29.7224 33.6783 32.0291 27.3081 32.6733C20.9377 33.3174 15.6059 32.0554 15.0056 25.6719C14.977 25.3671 14.964 25.2064 14.9592 24.9053L12.7995 25.916L12.6885 25.3536L14.9559 24.4266C14.9608 24.0326 14.9871 23.7848 15.0308 23.3994L12.5486 23.5974L12.5254 23.1418L15.0722 22.9386C15.1212 22.5924 15.1865 22.3928 15.2655 22.056L12.3465 21.7398L12.3781 21.1571L15.3429 21.6062C16.5502 17.0276 20.4846 13.4497 25.4533 12.9473C30.4302 12.444 34.8261 15.0319 36.8592 19.2943L39.8902 18.2445L39.9795 18.8148L37.1299 19.7243C37.2684 20.0363 37.3935 20.3558 37.5047 20.6826L40.0917 20.3657L40.1273 20.82L37.6059 21.129C37.7182 21.4926 37.8132 21.723 37.8903 22.1025L40.3438 22.5685L40.2893 23.0837ZM46.4754 39.2865C45.4112 39.536 44.4572 38.0474 43.8556 37.2806C43.2328 36.4868 43.3363 35.6849 43.6809 34.7367C44.4169 32.711 44.7047 30.5875 44.4439 27.8115C43.9816 22.897 41.9377 18.5691 38.9362 15.4L38.7111 9.83151C38.6409 8.95275 37.7108 8.45055 36.9764 8.89479L33.0733 11.2559C30.5891 10.178 27.8567 9.70551 25.0384 9.99045C21.7437 10.3236 18.7568 11.6486 16.2876 13.676L12.1351 12.668C11.3343 12.4737 10.5781 13.2553 10.772 14.077L11.9742 18.8042C9.90945 22.3885 8.88543 26.7625 9.31815 31.3635C10.3359 42.1867 18.7384 46.5184 28.4381 45.5374C33.2286 45.053 37.1857 44.0311 40.0985 40.9247C40.8478 42.6068 42.2745 43.6191 43.8821 44.6909C44.7191 45.2489 45.6006 45.5837 46.462 45.7129C46.6928 45.473 46.9187 45.2285 47.1405 44.9801C47.1568 44.9618 47.173 44.9432 47.1894 44.9248C47.6308 44.4282 48.054 43.9152 48.4581 43.3867C48.4685 43.3731 48.4791 43.3594 48.4896 43.3457C49.1109 42.53 49.6871 41.678 50.2138 40.7931C50.214 40.793 50.2141 40.7926 50.2141 40.7924C50.433 40.4247 50.6404 40.0494 50.8422 39.6707C49.7834 39.0115 48.0729 38.912 46.4754 39.2865Z" fill="white"/>
</g>
</g>
<defs>
<clipPath id="clip0_534_65">
<rect width="54" height="54" fill="white"/>
</clipPath>
</defs>
</svg>
