<svg width="52" height="37" viewBox="0 0 52 37" fill="none" xmlns="http://www.w3.org/2000/svg">
<path d="M45.825 12.3501C49.2353 12.3501 52 9.58541 52 6.17503C52 2.76466 49.2353 0 45.825 0C42.4146 0 39.6499 2.76466 39.6499 6.17503C39.6499 9.58541 42.4146 12.3501 45.825 12.3501Z" fill="white"/>
<path fill-rule="evenodd" clip-rule="evenodd" d="M20.8176 23.8903C20.4469 23.6464 19.3836 22.2368 16.4741 15.2667C16.2912 14.8278 16.1204 14.4522 15.9595 14.1278L15.3644 12.6889L10.2429 0.338867H0L5.12147 12.6889L10.2429 25.039L14.9742 36.4501C15.0065 36.5273 15.0609 36.5932 15.1306 36.6395C15.2002 36.6859 15.282 36.7106 15.3656 36.7106C15.4493 36.7106 15.5311 36.6859 15.6007 36.6395C15.6704 36.5932 15.7248 36.5273 15.7571 36.4501L20.898 24.144C20.9151 24.0988 20.9165 24.0492 20.9019 24.0032C20.8873 23.9571 20.8576 23.9174 20.8176 23.8903Z" fill="#3E5056"/>
<path fill-rule="evenodd" clip-rule="evenodd" d="M39.9865 23.8903C39.6158 23.6464 38.5525 22.2344 35.643 15.2643C35.4601 14.8278 35.2894 14.4522 35.1284 14.1278L34.5333 12.6889L29.4119 0.338867H19.186L24.3075 12.6889L29.4289 25.039L34.1431 36.4501C34.1754 36.5273 34.2298 36.5932 34.2995 36.6395C34.3691 36.6859 34.4509 36.7106 34.5346 36.7106C34.6182 36.7106 34.7 36.6859 34.7697 36.6395C34.8393 36.5932 34.8937 36.5273 34.926 36.4501L40.0694 24.144C40.0863 24.0985 40.0872 24.0487 40.0722 24.0027C40.0571 23.9566 40.0269 23.917 39.9865 23.8903Z" fill="#3E5056"/>
</svg>
