<svg width="46" height="46" viewBox="0 0 46 46" fill="none" xmlns="http://www.w3.org/2000/svg">
<rect x="3.47115" y="2.57031" width="35.1562" height="37.8606" fill="white"/>
<path d="M7.66667 0C3.43248 0 0 3.43248 0 7.66667V38.3333C0 42.5675 3.43248 46 7.66667 46H38.3333C42.5675 46 46 42.5675 46 38.3333V7.66667C46 3.43248 42.5675 0 38.3333 0H7.66667ZM9.95127 9.85714H18.6447L24.8183 18.6297L32.3095 9.85714H35.0476L26.0547 20.386L37.144 36.1429H28.4527L21.2887 25.9648L12.5952 36.1429H9.85714L20.0523 24.2086L9.95127 9.85714ZM14.144 12.0476L29.595 33.9524H32.9513L17.5003 12.0476H14.144Z" fill="#3E5056"/>
</svg>
