<svg width="49" height="49" viewBox="0 0 49 49" fill="none" xmlns="http://www.w3.org/2000/svg">
<path d="M1.2967 48.0554H11.308C11.838 48.0554 12.3092 47.7609 12.6036 47.3487L40.1642 2.06218C40.5175 1.47328 40.1053 0.766602 39.3986 0.766602H29.9173C29.4462 0.766602 29.034 1.00216 28.7984 1.41439L0.825583 47.2309C0.648913 47.5843 0.884474 48.0554 1.2967 48.0554Z" fill="#3E5056"/>
<path d="M35.8063 47.3485L48.8211 26.4425C49.2333 25.7947 48.7622 24.9702 47.9966 24.9702H38.5742C38.2208 24.9702 37.8675 25.1469 37.6908 25.4413L24.3228 46.8185C23.9694 47.3485 24.3816 48.0552 25.0294 48.0552H34.6285C35.0996 48.0552 35.5708 47.8196 35.8063 47.3485Z" fill="#3E5056"/>
</svg>
