<svg width="64" height="110" viewBox="0 0 64 110" fill="none" xmlns="http://www.w3.org/2000/svg">
<path d="M21 57L47 53.5L39.5 85.5L42.5 93.5L32.5 108.5L22.5 103L21 57Z" fill="white"/>
<circle cx="31.5" cy="30.5" r="28.5" fill="white"/>
<path d="M31.8785 0C14.3012 0 0 14.3012 0 31.8787C0 38.8313 2.19916 45.4389 6.35985 50.9869C9.66739 55.3985 14.1306 58.9116 19.1616 61.1123V100.465C19.1616 102.731 20.2582 104.874 22.0943 106.2L25.5026 108.663C26.716 109.539 28.1475 110.001 29.6426 110.001C31.8461 110.001 33.9563 108.952 35.2853 107.194L43.6059 96.1888C45.5072 93.6758 45.5042 90.1652 43.6031 87.6534L42.5228 86.2279L43.6016 84.8054C45.5057 82.2907 45.5057 78.7788 43.6016 76.2628L42.5495 74.8742L46.9476 69.1928C47.9019 67.9583 48.4278 66.4218 48.4278 64.8631V59.1299C52.5814 56.6048 56.1156 53.1566 58.7546 49.0296C62.0282 43.9099 63.7573 37.9797 63.7573 31.879C63.757 14.3012 49.4576 0 31.8785 0ZM43.7227 56.3421V64.8629C43.7227 65.3888 43.5494 65.8986 43.2277 66.3135L37.7361 73.4085C37.0795 74.2561 37.0735 75.4371 37.7212 76.2907L39.8506 79.1017C40.4923 79.9478 40.4923 81.1185 39.8506 81.9645L36.6247 86.2247V86.229L39.8521 90.4924C40.4938 91.3384 40.4938 92.5063 39.8551 93.3524L31.5348 104.356C31.0694 104.973 30.3596 105.297 29.6424 105.297C29.1607 105.297 28.6748 105.151 28.2569 104.848L24.8471 102.387C24.2307 101.941 23.8648 101.227 23.8648 100.465V57.8505C12.7674 54.4319 4.70318 44.0976 4.70318 31.8785C4.70318 16.869 16.869 4.70318 31.8785 4.70318C46.888 4.70318 59.0539 16.869 59.0539 31.8785C59.0539 42.641 52.7976 51.9412 43.7227 56.3421Z" fill="#3E5056"/>
<path d="M32.0564 15.6543C28.9177 15.6543 26.372 18.1987 26.372 21.3387C26.372 24.4771 28.9177 27.0215 32.0564 27.0215C35.1949 27.0215 37.7408 24.4771 37.7408 21.3387C37.7406 18.1987 35.1949 15.6543 32.0564 15.6543Z" fill="#3E5056"/>
<path d="M29.023 96.6805H31.8785V59.054C30.9139 59.054 29.961 59.0023 29.0232 58.9043V96.6805H29.023Z" fill="#3E5056"/>
</svg>
